<svg aria-hidden="true" style="position: absolute; width: 0; height: 0; overflow: hidden;" version="1.1" xmlns="http://www.w3.org/2000/svg" xmlns:xlink="http://www.w3.org/1999/xlink">
<defs>
<symbol id="icon-burger" viewBox="0 0 32 32">
<path fill="none" stroke="#fff" style="stroke: var(--color1, #fff)" stroke-linejoin="round" stroke-linecap="round" stroke-miterlimit="4" stroke-width="3" d="M4 16h24"></path>
<path fill="none" stroke="#fff" style="stroke: var(--color1, #fff)" stroke-linejoin="round" stroke-linecap="round" stroke-miterlimit="4" stroke-width="3" d="M4 8h24"></path>
<path fill="none" stroke="#fff" style="stroke: var(--color1, #fff)" stroke-linejoin="round" stroke-linecap="round" stroke-miterlimit="4" stroke-width="3" d="M4 24h24"></path>
</symbol>
<symbol id="icon-calendar" viewBox="0 0 32 32">
<path stroke-linejoin="round" stroke-linecap="round" stroke-miterlimit="4" stroke-width="2.88" d="M25.333 5.333h-18.667c-1.473 0-2.667 1.194-2.667 2.667v18.667c0 1.473 1.194 2.667 2.667 2.667h18.667c1.473 0 2.667-1.194 2.667-2.667v-18.667c0-1.473-1.194-2.667-2.667-2.667z"></path>
<path stroke-linejoin="round" stroke-linecap="round" stroke-miterlimit="4" stroke-width="2.88" d="M21.333 2.667v5.333"></path>
<path stroke-linejoin="round" stroke-linecap="round" stroke-miterlimit="4" stroke-width="2.88" d="M10.667 2.667v5.333"></path>
<path stroke-linejoin="round" stroke-linecap="round" stroke-miterlimit="4" stroke-width="2.88" d="M4 13.333h24"></path>
</symbol>
<symbol id="icon-check" viewBox="0 0 32 32">
<path stroke-linejoin="round" stroke-linecap="round" stroke-miterlimit="4" stroke-width="2.1818" d="M26.667 9.333l-14.667 14.667-6.667-6.667"></path>
</symbol>
<symbol id="icon-chevron-down" viewBox="0 0 32 32">
<path stroke-linejoin="round" stroke-linecap="round" stroke-miterlimit="4" stroke-width="3.5556" d="M8 12l8 8 8-8"></path>
</symbol>
<symbol id="icon-cross-small" viewBox="0 0 32 32">
<path stroke-linejoin="round" stroke-linecap="round" stroke-miterlimit="4" stroke-width="2.9091" d="M25.333 6.667l-18.667 18.667M6.666 6.667l18.667 18.667"></path>
</symbol>
<symbol id="icon-edit" viewBox="0 0 32 32">
<path fill="none" stroke="#f6b83d" style="stroke: var(--color2, #f6b83d)" stroke-linejoin="round" stroke-linecap="round" stroke-miterlimit="4" stroke-width="2.6667" d="M22.667 4c0.35-0.35 0.766-0.628 1.223-0.817s0.948-0.287 1.443-0.287c0.495 0 0.986 0.098 1.443 0.287s0.873 0.467 1.223 0.817c0.35 0.35 0.628 0.766 0.817 1.224s0.287 0.948 0.287 1.443c0 0.495-0.098 0.986-0.287 1.443s-0.467 0.873-0.817 1.223l-18 18-7.333 2 2-7.333 18-18z"></path>
</symbol>
<symbol id="icon-eye" viewBox="0 0 32 32">
<path fill="none" stroke="#f6b83d" style="stroke: var(--color2, #f6b83d)" stroke-linejoin="round" stroke-linecap="round" stroke-miterlimit="4" stroke-width="2.9091" d="M1.332 16c0 0 5.333-10.667 14.667-10.667s14.667 10.667 14.667 10.667-5.333 10.667-14.667 10.667c-9.333 0-14.667-10.667-14.667-10.667z"></path>
<path fill="none" stroke="#f6b83d" style="stroke: var(--color2, #f6b83d)" stroke-linejoin="round" stroke-linecap="round" stroke-miterlimit="4" stroke-width="2.9091" d="M16 20c2.209 0 4-1.791 4-4s-1.791-4-4-4c-2.209 0-4 1.791-4 4s1.791 4 4 4z"></path>
</symbol>
<symbol id="icon-eye-off" viewBox="0 0 32 32">
<path fill="none" stroke="#f6b83d" style="stroke: var(--color2, #f6b83d)" stroke-linejoin="round" stroke-linecap="round" stroke-miterlimit="4" stroke-width="2.9091" d="M23.922 23.92c-2.279 1.737-5.055 2.7-7.92 2.747-9.333 0-14.667-10.667-14.667-10.667 1.659-3.091 3.959-5.791 6.747-7.92M13.202 5.653c0.918-0.215 1.857-0.322 2.8-0.32 9.333 0 14.667 10.667 14.667 10.667-0.809 1.514-1.775 2.94-2.88 4.253M18.828 18.827c-0.366 0.393-0.808 0.708-1.298 0.927s-1.020 0.336-1.557 0.346c-0.537 0.009-1.071-0.089-1.569-0.291s-0.951-0.5-1.33-0.88c-0.38-0.38-0.679-0.832-0.88-1.33s-0.3-1.032-0.29-1.569c0.009-0.537 0.127-1.067 0.346-1.557s0.534-0.932 0.927-1.298"></path>
<path fill="none" stroke="#f6b83d" style="stroke: var(--color2, #f6b83d)" stroke-linejoin="round" stroke-linecap="round" stroke-miterlimit="4" stroke-width="2.9091" d="M1.335 1.333l29.333 29.333"></path>
</symbol>
<symbol id="icon-female" viewBox="0 0 32 32">
<path fill="none" stroke="#fff" style="stroke: var(--color1, #fff)" stroke-linejoin="round" stroke-linecap="round" stroke-miterlimit="4" stroke-width="2.4" d="M16 17.6c4.418 0 8-3.582 8-8s-3.582-8-8-8c-4.418 0-8 3.582-8 8s3.582 8 8 8zM16 17.6v12.8M11.2 25.6h9.6"></path>
</symbol>
<symbol id="icon-heart" viewBox="0 0 32 32">
<path fill="none" stroke="#f6b83d" style="stroke: var(--color2, #f6b83d)" stroke-linejoin="round" stroke-linecap="round" stroke-miterlimit="4" stroke-width="2.6667" d="M27.784 6.147c-0.681-0.681-1.49-1.222-2.38-1.591s-1.844-0.559-2.807-0.559c-0.963 0-1.917 0.19-2.807 0.559s-1.698 0.909-2.38 1.591l-1.413 1.413-1.413-1.413c-1.376-1.376-3.241-2.148-5.187-2.148s-3.811 0.773-5.187 2.148c-1.376 1.376-2.148 3.241-2.148 5.187s0.773 3.811 2.148 5.187l11.787 11.787 11.787-11.787c0.681-0.681 1.222-1.49 1.591-2.38s0.559-1.844 0.559-2.807c0-0.963-0.19-1.917-0.559-2.807s-0.909-1.699-1.591-2.38z"></path>
</symbol>
<symbol id="icon-left-arrow" viewBox="0 0 32 32">
<path d="M12.8 17.623c-0.214-0.212-0.384-0.465-0.5-0.744s-0.176-0.577-0.176-0.879c0-0.302 0.060-0.601 0.176-0.879s0.286-0.531 0.5-0.744l10.491-10.469c0.214-0.212 0.384-0.465 0.5-0.744s0.176-0.577 0.176-0.879c0-0.302-0.060-0.601-0.176-0.879s-0.286-0.531-0.5-0.744c-0.428-0.426-1.008-0.665-1.611-0.665s-1.183 0.239-1.611 0.665l-10.491 10.491c-1.284 1.286-2.005 3.029-2.005 4.846s0.721 3.56 2.005 4.846l10.491 10.492c0.426 0.422 1 0.66 1.6 0.663 0.301 0.002 0.599-0.056 0.878-0.17s0.532-0.281 0.745-0.493c0.214-0.213 0.384-0.465 0.5-0.744s0.176-0.577 0.176-0.879c0-0.302-0.060-0.601-0.176-0.879s-0.286-0.531-0.5-0.744l-10.491-10.469z"></path>
</symbol>
<symbol id="icon-logo-heart-white" viewBox="0 0 32 32">
<path fill="#fff" style="fill: var(--color1, #fff)" d="M15.992 7.561c-2.559-3.022-6.827-3.834-10.033-1.068s-3.658 7.393-1.14 10.665c1.613 2.096 5.743 5.983 8.505 8.506 0.918 0.839 1.376 1.258 1.926 1.426 0.472 0.145 1.012 0.145 1.485 0 0.55-0.168 1.008-0.587 1.926-1.426 2.761-2.524 6.892-6.41 8.505-8.506 2.518-3.272 2.122-7.928-1.14-10.665s-7.474-1.954-10.033 1.068z"></path>
</symbol>
<symbol id="icon-logo-heart-yellow" viewBox="0 0 32 32">
<path fill="#f6b83d" style="fill: var(--color2, #f6b83d)" d="M15.992 7.561c-2.559-3.022-6.827-3.834-10.033-1.068s-3.658 7.393-1.14 10.665c1.613 2.096 5.743 5.983 8.505 8.506 0.918 0.839 1.376 1.258 1.926 1.426 0.472 0.145 1.012 0.145 1.485 0 0.55-0.168 1.008-0.587 1.926-1.426 2.761-2.524 6.892-6.41 8.505-8.506 2.518-3.272 2.122-7.928-1.14-10.665s-7.474-1.954-10.033 1.068z"></path>
</symbol>
<symbol id="icon-male" viewBox="0 0 32 32">
<path fill="none" stroke="#fff" style="stroke: var(--color1, #fff)" stroke-linejoin="round" stroke-linecap="round" stroke-miterlimit="4" stroke-width="2" d="M16 14.667c-3.682 0-6.667 2.985-6.667 6.667s2.985 6.667 6.667 6.667c3.682 0 6.667-2.985 6.667-6.667s-2.985-6.667-6.667-6.667zM16 14.667v-10.667M16 4l5.333 5.333M16 4l-5.333 5.333"></path>
</symbol>
<symbol id="icon-male-female" viewBox="0 0 32 32">
<path fill="#fff" style="fill: var(--color1, #fff)" d="M10.259 8.436c-1.276-0.498-2.68-0.561-3.996-0.18s-2.468 1.187-3.279 2.291c-0.811 1.104-1.235 2.444-1.206 3.813s0.509 2.691 1.365 3.759c0.857 1.069 2.042 1.825 3.372 2.151s2.731 0.204 3.985-0.348c1.254-0.551 2.29-1.501 2.949-2.702s0.903-2.585 0.694-3.939c-0.018-0.115-0.013-0.233 0.015-0.346s0.078-0.22 0.147-0.314c0.069-0.094 0.156-0.174 0.256-0.234s0.21-0.101 0.326-0.119c0.115-0.018 0.233-0.013 0.346 0.015s0.22 0.078 0.314 0.147c0.094 0.069 0.174 0.156 0.234 0.256s0.101 0.21 0.119 0.326c0.268 1.74-0.046 3.52-0.893 5.064s-2.18 2.765-3.792 3.473c-1.612 0.709-3.413 0.865-5.123 0.446s-3.234-1.391-4.335-2.765c-1.101-1.374-1.718-3.073-1.755-4.833s0.508-3.484 1.551-4.903c1.043-1.419 2.524-2.454 4.215-2.945s3.497-0.41 5.137 0.231c0.11 0.041 0.211 0.104 0.297 0.185s0.155 0.177 0.203 0.285c0.048 0.107 0.074 0.223 0.077 0.341s-0.018 0.235-0.061 0.344c-0.043 0.11-0.107 0.21-0.189 0.294s-0.179 0.152-0.288 0.199c-0.108 0.047-0.224 0.071-0.342 0.072s-0.234-0.020-0.343-0.064z"></path>
<path fill="#fff" style="fill: var(--color1, #fff)" d="M7.108 29.334v-7.108c0-0.236 0.094-0.462 0.26-0.628s0.393-0.26 0.628-0.26c0.236 0 0.462 0.094 0.628 0.26s0.26 0.393 0.26 0.628v7.108c0 0.236-0.094 0.462-0.26 0.628s-0.393 0.26-0.628 0.26c-0.236 0-0.462-0.094-0.628-0.26s-0.26-0.393-0.26-0.628z"></path>
<path fill="#fff" style="fill: var(--color1, #fff)" d="M4.443 24.891c0-0.236 0.094-0.462 0.26-0.628s0.393-0.26 0.628-0.26h5.331c0.236 0 0.462 0.094 0.628 0.26s0.26 0.393 0.26 0.628c0 0.236-0.094 0.462-0.26 0.628s-0.393 0.26-0.628 0.26h-5.331c-0.236 0-0.462-0.093-0.628-0.26s-0.26-0.393-0.26-0.628zM20.349 8.243c-0.985-0.278-2.023-0.309-3.022-0.090s-1.929 0.681-2.707 1.346c-0.778 0.665-1.38 1.511-1.753 2.464s-0.505 1.983-0.384 2.999c0.014 0.116 0.006 0.234-0.026 0.347s-0.085 0.218-0.157 0.31c-0.072 0.092-0.162 0.169-0.264 0.227s-0.214 0.094-0.331 0.108c-0.116 0.014-0.234 0.005-0.347-0.027s-0.218-0.086-0.31-0.158c-0.092-0.073-0.168-0.163-0.225-0.265s-0.093-0.215-0.106-0.331c-0.208-1.749 0.168-3.517 1.068-5.030s2.275-2.688 3.91-3.34c1.636-0.652 3.441-0.747 5.135-0.269s3.184 1.503 4.237 2.914c1.053 1.411 1.611 3.131 1.587 4.891s-0.629 3.464-1.72 4.846c-1.091 1.382-2.608 2.365-4.315 2.797s-3.509 0.288-5.126-0.409c-0.107-0.046-0.204-0.113-0.286-0.197s-0.145-0.183-0.189-0.291c-0.087-0.219-0.084-0.463 0.009-0.68s0.269-0.387 0.488-0.474c0.219-0.087 0.464-0.084 0.68 0.009 0.782 0.337 1.624 0.51 2.476 0.508s1.693-0.179 2.473-0.519c0.78-0.34 1.482-0.837 2.063-1.46s1.027-1.358 1.311-2.16c0.285-0.802 0.402-1.654 0.344-2.503s-0.289-1.678-0.68-2.434-0.933-1.424-1.593-1.962c-0.659-0.538-1.422-0.935-2.241-1.167z"></path>
<path fill="#fff" style="fill: var(--color1, #fff)" d="M23.807 9.97c-0.167-0.167-0.26-0.393-0.26-0.628s0.094-0.462 0.26-0.628l6.664-6.664c0.082-0.085 0.18-0.153 0.289-0.199s0.225-0.071 0.343-0.072c0.118-0.001 0.235 0.021 0.344 0.066s0.208 0.111 0.292 0.194c0.084 0.083 0.149 0.183 0.194 0.292s0.067 0.226 0.066 0.344c-0.001 0.118-0.026 0.235-0.072 0.343s-0.114 0.206-0.199 0.288l-6.664 6.664c-0.167 0.167-0.393 0.26-0.628 0.26s-0.462-0.094-0.628-0.26z"></path>
<path fill="#fff" style="fill: var(--color1, #fff)" d="M31.031 8.009c-0.117-0.002-0.232-0.026-0.339-0.072s-0.204-0.113-0.286-0.196c-0.081-0.084-0.146-0.182-0.189-0.291s-0.065-0.224-0.063-0.341l0.044-3.531-3.531 0.044c-0.236 0.003-0.463-0.088-0.632-0.252s-0.265-0.389-0.268-0.625 0.088-0.463 0.252-0.632c0.164-0.169 0.389-0.265 0.625-0.268l5.354-0.068-0.068 5.354c-0.002 0.117-0.026 0.232-0.072 0.339s-0.113 0.204-0.196 0.286c-0.084 0.081-0.182 0.146-0.291 0.189s-0.224 0.065-0.341 0.063z"></path>
</symbol>
<symbol id="icon-right-arrow" viewBox="0 0 32 32">
<path d="M19.2 17.623c0.214-0.212 0.384-0.465 0.5-0.744s0.176-0.577 0.176-0.879c0-0.302-0.060-0.601-0.176-0.879s-0.286-0.531-0.5-0.744l-10.491-10.469c-0.214-0.212-0.384-0.465-0.5-0.744s-0.176-0.577-0.176-0.879c0-0.302 0.060-0.601 0.176-0.879s0.286-0.531 0.5-0.744c0.428-0.426 1.008-0.665 1.611-0.665s1.183 0.239 1.611 0.665l10.491 10.491c1.284 1.286 2.005 3.029 2.005 4.846s-0.721 3.56-2.005 4.846l-10.491 10.491c-0.426 0.422-1 0.66-1.6 0.663-0.301 0.002-0.599-0.056-0.877-0.17s-0.532-0.281-0.745-0.493c-0.214-0.213-0.384-0.465-0.5-0.744s-0.176-0.577-0.176-0.879 0.060-0.6 0.176-0.879c0.116-0.279 0.286-0.531 0.5-0.744l10.491-10.469z"></path>
</symbol>
<symbol id="icon-search" viewBox="0 0 32 32">
<path stroke-linejoin="round" stroke-linecap="round" stroke-miterlimit="4" stroke-width="3.5556" d="M14.667 25.333c5.891 0 10.667-4.776 10.667-10.667s-4.776-10.667-10.667-10.667c-5.891 0-10.667 4.776-10.667 10.667s4.776 10.667 10.667 10.667z"></path>
<path stroke-linejoin="round" stroke-linecap="round" stroke-miterlimit="4" stroke-width="3.5556" d="M28.001 28l-5.8-5.8"></path>
</symbol>
<symbol id="icon-star" viewBox="0 0 32 32">
<path fill="#ffc531" style="fill: var(--color3, #ffc531); stroke: var(--color3, #ffc531)" stroke="#ffc531" stroke-linejoin="miter" stroke-linecap="butt" stroke-miterlimit="4" stroke-width="2.4" d="M12.4 10.394l3.6-6.822 3.6 6.822c0.318 0.603 0.899 1.025 1.571 1.141l7.601 1.315-5.376 5.532c-0.475 0.489-0.697 1.171-0.6 1.846l1.098 7.635-6.922-3.404c-0.612-0.301-1.329-0.301-1.941 0l-6.922 3.404 1.098-7.635c0.097-0.675-0.125-1.357-0.6-1.846l-5.376-5.532 7.601-1.315c0.672-0.116 1.252-0.538 1.571-1.141z"></path>
</symbol>
<symbol id="icon-trash" viewBox="0 0 32 32">
<path fill="none" stroke="#f6b83d" style="stroke: var(--color2, #f6b83d)" stroke-linejoin="round" stroke-linecap="round" stroke-miterlimit="4" stroke-width="2.6667" d="M4 8h24"></path>
<path fill="none" stroke="#f6b83d" style="stroke: var(--color2, #f6b83d)" stroke-linejoin="round" stroke-linecap="round" stroke-miterlimit="4" stroke-width="2.6667" d="M25.333 8v18.667c0 0.707-0.281 1.386-0.781 1.886s-1.178 0.781-1.886 0.781h-13.333c-0.707 0-1.386-0.281-1.886-0.781s-0.781-1.178-0.781-1.886v-18.667M10.667 8v-2.667c0-0.707 0.281-1.386 0.781-1.886s1.178-0.781 1.886-0.781h5.333c0.707 0 1.386 0.281 1.886 0.781s0.781 1.178 0.781 1.886v2.667"></path>
<path fill="none" stroke="#f6b83d" style="stroke: var(--color2, #f6b83d)" stroke-linejoin="round" stroke-linecap="round" stroke-miterlimit="4" stroke-width="2.6667" d="M13.333 14.667v8"></path>
<path fill="none" stroke="#f6b83d" style="stroke: var(--color2, #f6b83d)" stroke-linejoin="round" stroke-linecap="round" stroke-miterlimit="4" stroke-width="2.6667" d="M18.667 14.667v8"></path>
</symbol>
<symbol id="icon-user" viewBox="0 0 32 32">
<path fill="#f6b83d" style="fill: var(--color2, #f6b83d); stroke: var(--color2, #f6b83d)" stroke="#f6b83d" stroke-linejoin="round" stroke-linecap="round" stroke-miterlimit="4" stroke-width="2.6667" d="M16 20c-4.227 0-7.986 2.041-10.379 5.208-0.515 0.682-0.773 1.022-0.764 1.483 0.006 0.356 0.23 0.805 0.51 1.025 0.362 0.284 0.865 0.284 1.869 0.284h17.527c1.005 0 1.507 0 1.869-0.284 0.28-0.22 0.503-0.669 0.51-1.025 0.008-0.461-0.249-0.801-0.764-1.483-2.393-3.167-6.152-5.208-10.379-5.208z"></path>
<path fill="#f6b83d" style="fill: var(--color2, #f6b83d); stroke: var(--color2, #f6b83d)" stroke="#f6b83d" stroke-linejoin="round" stroke-linecap="round" stroke-miterlimit="4" stroke-width="2.6667" d="M16 16c3.314 0 6-2.686 6-6s-2.686-6-6-6c-3.314 0-6 2.686-6 6s2.686 6 6 6z"></path>
</symbol>
</defs>
</svg>
